# xmcd CD database file
#
# Track frame offsets:
#	150
#	23922
#	44282
#
# Disc length: 907 seconds
#
# Revision: 0
# Processed by: cddbd v1.5PL3 Copyright (c) Steve Scherf et al.
# Submitted via: CDex 1.51
#
DISCID=1c038903
DTITLE=神崎まき - その気にさせないで
DYEAR=1900
DGENRE=Pop
TTITLE0=その気にさせないで
TTITLE1=二人なら・・・きっと
TTITLE2=その気にさせないで (オリジナルカラオケ)
EXTD=
EXTT0=
EXTT1=
EXTT2=
PLAYORDER=
